<svg xmlns="http://www.w3.org/2000/svg" width="354" height="118" viewBox="0 0 354 118"><path d="m0 77.6 6.308-14.86 20.687-.2 6.615 14.731Zm43.914-.43L37.3 62.436l29.069-.285-6.309 14.861Z" fill="#fb8d29"/><path d="m68.173 21.71-15.73 37.67L26.363.598H9.805L43.749 77.18h16.556l23.6-55.47Zm22.354 55.47h16.144V21.71H90.526Zm61.679-56.3c-7.524 0-13.885 2.71-18.214 7.451v-6.623h-15.317v55.47h16.144V50.685c0-10.2 5.516-15.316 13.247-15.316 7.112 0 11.177 3.451 11.177 12.419v29.391h16.144V45.304c0-16.906-10.091-24.422-23.182-24.422Zm68.717 42.637a9.732 9.732 0 0 1-6.209 1.656c-4.329 0-7.037-2.71-7.037-7.451V35.368h13.247l7.451-12.419h-20.7V8.875h-15.73v14.074h-14.488l5.381 12.419h9.107v22.768c0 13.194 7.607 19.87 20.7 19.87 4.948 0 10.362-1.355 13.661-3.726Zm65.4-13.661c0-17.832-12.691-28.977-28.977-28.977-16.9 0-29.391 11.968-29.391 28.563a27.367 27.367 0 0 0 8.616 20.536c5.393 5.009 13.258 8.027 22.844 8.027 10 0 18.028-3.646 23.182-9.521l-8.692-8.686a19.5 19.5 0 0 1-14.074 5.8c-8.452 0-15.84-4.685-17.386-11.591h43.465c.106-1.349.417-2.909.417-4.148Zm-28.559-16.558c7.215 0 14.183 4.168 15.316 11.177h-30.632c1.134-7.11 7.998-11.177 15.316-11.177Zm65.819 44.707c17.622.003 30.222-11.862 30.222-28.56s-12.593-28.563-30.219-28.563-30.633 11.865-30.633 28.563 13.004 28.563 30.63 28.563Zm0-13.247c-8.04 0-15.494-5.73-15.494-15.316s7.454-15.316 15.494-15.316 15.73 5.73 15.73 15.316-7.69 15.319-15.73 15.319Z" fill="#fff"/><circle cx="8.5" cy="8.5" r="8.5" transform="translate(89.931)" fill="#fff"/><text transform="translate(50.931 114)" fill="#fff" font-size="17" font-family="Montserrat-Light, Montserrat" font-weight="300"><tspan x="0" y="0">VIDEO COMMUNICATION CORE</tspan></text></svg>
