<?xml version="1.0" standalone="no"?>
<!DOCTYPE svg PUBLIC "-//W3C//DTD SVG 20010904//EN"
 "http://www.w3.org/TR/2001/REC-SVG-20010904/DTD/svg10.dtd">
<svg version="1.0" xmlns="http://www.w3.org/2000/svg"
 width="700.000000pt" height="700.000000pt" viewBox="0 0 700.000000 700.000000"
 preserveAspectRatio="xMidYMid meet">
<metadata>
Created by potrace 1.14, written by Peter Selinger 2001-2017
</metadata>
<g transform="translate(0.000000,700.000000) scale(0.100000,-0.100000)"
fill="#000000" stroke="none">
<path d="M1215 6986 c-538 -85 -979 -457 -1145 -965 -70 -216 -65 -16 -65
-2521 0 -2126 1 -2260 18 -2343 56 -275 181 -515 370 -714 206 -215 464 -357
762 -419 87 -18 174 -19 2345 -19 2126 0 2260 1 2343 18 275 56 515 181 714
370 214 205 357 465 419 762 18 87 19 176 19 2345 0 2169 -1 2258 -19 2345
-28 136 -72 258 -137 386 -196 381 -537 640 -974 742 -90 21 -91 21 -2330 23
-1765 2 -2257 0 -2320 -10z m2394 -2833 c339 -816 618 -1483 621 -1483 3 0
151 333 329 740 l324 740 374 0 c352 0 374 -1 369 -17 -3 -10 -228 -551 -500
-1203 l-494 -1185 -359 -3 -360 -2 -858 1942 c-472 1069 -860 1946 -862 1951
-3 4 177 6 398 5 l401 -3 617 -1482z m-301 -2076 c63 -180 112 -330 110 -332
-3 -3 -363 -4 -800 -3 l-796 3 99 265 c55 146 111 295 125 333 l26 67 560 -2
561 -3 115 -328z"/>
</g>
</svg>
