<svg xmlns="http://www.w3.org/2000/svg" xmlns:xlink="http://www.w3.org/1999/xlink"><defs>
    <filter id="BG_copy" x="0" y="0" width="219" height="83" filterUnits="userSpaceOnUse">
      <feOffset dy="3" input="SourceAlpha"/>
      <feGaussianBlur stdDeviation="8" result="blur"/>
      <feFlood flood-opacity="0.161"/>
      <feComposite operator="in" in2="blur"/>
      <feComposite in="SourceGraphic"/>
    </filter>
  </defs><symbol id="icon-arrow" viewBox="0 0 8.34 8.34">
  <path id="&#x41A;&#x43E;&#x43D;&#x442;&#x443;&#x440;_10" data-name="&#x41A;&#x43E;&#x43D;&#x442;&#x443;&#x440; 10" d="M4.17,8.34l-.758-.758,2.87-2.87H0V3.628H6.282L3.412.758,4.17,0,8.34,4.17Z" transform="translate(0 0)" fill="currentColor"/>
</symbol><symbol id="icon-check" viewBox="0 0 12 8">
  <path d="M4.548,7.91,0,3.362l.923-.923L4.548,6l6-6,.923.923Z" fill="currentColor"/>
</symbol><symbol id="icon-close" viewBox="0 0 20 20"><path d="M.293 18.291a1 1 0 101.414 1.414L10 11.413l8.292 8.292a1 1 0 101.414-1.414l-8.292-8.292 8.292-8.292A1 1 0 1018.291.293L9.999 8.585 1.707.293A1 1 0 10.293 1.707L8.585 10 .293 18.291z"/></symbol><symbol id="icon-dev" viewBox="0 0 219 83">
  
  <g id="&#x41A;&#x43E;&#x43C;&#x43F;&#x43E;&#x43D;&#x435;&#x43D;&#x442;_1_2" data-name="&#x41A;&#x43E;&#x43C;&#x43F;&#x43E;&#x43D;&#x435;&#x43D;&#x442; 1 &#x2013; 2" transform="translate(24 21)">
    <g transform="matrix(1, 0, 0, 1, -24, -21)" filter="url(#BG_copy)">
      <path id="BG_copy-2" data-name="BG copy" d="M0,0H171V35H0Z" transform="translate(24 21)" fill="#311e2c"/>
    </g>
    <path id="&#x41A;&#x43E;&#x43D;&#x442;&#x443;&#x440;_205" data-name="&#x41A;&#x43E;&#x43D;&#x442;&#x443;&#x440; 205" d="M-53.864-7.149a2.832,2.832,0,0,0-1.673.521A3.5,3.5,0,0,0-56.708-5.1a5.5,5.5,0,0,0-.432,2.194,2.349,2.349,0,0,0,.524,1.6,1.816,1.816,0,0,0,1.442.6,5.92,5.92,0,0,0,1.729-.306v.8a5.443,5.443,0,0,1-.881.242,5.814,5.814,0,0,1-1.01.075,2.64,2.64,0,0,1-2.041-.8,3.1,3.1,0,0,1-.741-2.189,6.054,6.054,0,0,1,.567-2.608,4.366,4.366,0,0,1,1.523-1.84,3.829,3.829,0,0,1,2.165-.634,3.933,3.933,0,0,1,1.869.43l-.371.757A3.32,3.32,0,0,0-53.864-7.149Zm7.16,2.057a7.752,7.752,0,0,1-.446,2.621A4.539,4.539,0,0,1-48.343-.556a2.492,2.492,0,0,1-1.7.663,1.8,1.8,0,0,1-1.41-.561,2.242,2.242,0,0,1-.508-1.56,4.6,4.6,0,0,1,.368-1.821,3.187,3.187,0,0,1,1-1.337,2.268,2.268,0,0,1,1.4-.473,1.786,1.786,0,0,1,.921.223,1.633,1.633,0,0,1,.62.712h.032l.011-.172v-.134a4.369,4.369,0,0,0-.368-2.041A1.2,1.2,0,0,0-49.1-7.724a2.751,2.751,0,0,0-1.155.252l-.231-.655a3.227,3.227,0,0,1,.728-.247,3.5,3.5,0,0,1,.765-.1,1.942,1.942,0,0,1,1.719.833A4.557,4.557,0,0,1-46.7-5.092ZM-49.948-.65a1.624,1.624,0,0,0,1.313-.814,5.588,5.588,0,0,0,.841-2.2,2.019,2.019,0,0,0-.518-.94,1.157,1.157,0,0,0-.83-.338,1.387,1.387,0,0,0-.932.395,2.7,2.7,0,0,0-.7,1.072,4,4,0,0,0-.26,1.45,1.611,1.611,0,0,0,.282,1.015A.966.966,0,0,0-49.948-.65Zm6.295.757a2.054,2.054,0,0,1-1.552-.585A2.241,2.241,0,0,1-45.77-2.1a4.833,4.833,0,0,1,.4-1.936,3.584,3.584,0,0,1,1.061-1.442,2.312,2.312,0,0,1,1.456-.516,1.846,1.846,0,0,1,1.235.357,1.246,1.246,0,0,1,.414,1A1.7,1.7,0,0,1-42.1-3.123a4.883,4.883,0,0,1-2.551.551h-.177l-.021.43a1.662,1.662,0,0,0,.33,1.1,1.259,1.259,0,0,0,1.023.395,2.657,2.657,0,0,0,.7-.1,5.325,5.325,0,0,0,.889-.354v.784a4.868,4.868,0,0,1-.892.33A3.617,3.617,0,0,1-43.654.107Zm.747-5.333a1.435,1.435,0,0,0-1.039.5,3.3,3.3,0,0,0-.744,1.4h.064a4.385,4.385,0,0,0,1.877-.32,1,1,0,0,0,.653-.927.627.627,0,0,0-.2-.473A.863.863,0,0,0-42.907-5.226ZM-36.558,0h-.913l1.112-5.124a1.858,1.858,0,0,0-.419-.048,1.235,1.235,0,0,0-.671.164,1.506,1.506,0,0,0-.478.569,13.907,13.907,0,0,0-.666,1.678,11.62,11.62,0,0,1-.763,1.823,2.205,2.205,0,0,1-.687.773,1.667,1.667,0,0,1-.913.239A1.02,1.02,0,0,1-41.376,0V-.779a1.073,1.073,0,0,0,.36.054.888.888,0,0,0,.588-.2,2.106,2.106,0,0,0,.478-.663,12.307,12.307,0,0,0,.577-1.464,9.663,9.663,0,0,1,.795-1.9A2.077,2.077,0,0,1-37.8-5.7,2.484,2.484,0,0,1-36.65-5.93a5.261,5.261,0,0,1,1.321.167Zm5.027-5.994a1.518,1.518,0,0,1,.881.266,1.728,1.728,0,0,1,.6.765h.059l.36-.924h.682L-30.2,0h-.714l.14-1.123h-.043A2.649,2.649,0,0,1-32.842.107a1.415,1.415,0,0,1-1.171-.532,2.272,2.272,0,0,1-.424-1.456,5.545,5.545,0,0,1,.381-2.073A3.582,3.582,0,0,1-33-5.452,2.29,2.29,0,0,1-31.531-5.994ZM-32.552-.639a1.512,1.512,0,0,0,1.037-.5,3.682,3.682,0,0,0,.838-1.294,4.237,4.237,0,0,0,.322-1.6,1.252,1.252,0,0,0-.3-.881,1.021,1.021,0,0,0-.79-.328,1.479,1.479,0,0,0-1.039.462,3.116,3.116,0,0,0-.755,1.251,5.044,5.044,0,0,0-.274,1.665,1.408,1.408,0,0,0,.252.916A.871.871,0,0,0-32.552-.639Zm6.268-5.248L-26.8-3.421h2.874l.526-2.465h.9L-23.743,0h-.913l.559-2.653h-2.868L-27.53,0h-.9l1.257-5.887Zm7.579-.075a2.15,2.15,0,0,1,1.611.6A2.276,2.276,0,0,1-16.5-3.7a4.765,4.765,0,0,1-.387,1.907A3.3,3.3,0,0,1-17.937-.4,2.447,2.447,0,0,1-19.43.086a2.141,2.141,0,0,1-1.617-.607,2.29,2.29,0,0,1-.585-1.66A4.753,4.753,0,0,1-21.24-4.1a3.255,3.255,0,0,1,1.058-1.38A2.466,2.466,0,0,1-18.7-5.962Zm1.268,2.143a1.467,1.467,0,0,0-.336-1,1.147,1.147,0,0,0-.91-.384,1.572,1.572,0,0,0-1.05.4,2.558,2.558,0,0,0-.72,1.1,4.6,4.6,0,0,0-.255,1.571,1.584,1.584,0,0,0,.341,1.088,1.242,1.242,0,0,0,.98.384,1.481,1.481,0,0,0,1-.392,2.561,2.561,0,0,0,.7-1.115A5.043,5.043,0,0,0-17.437-3.819ZM-9.5-5.983a2.451,2.451,0,0,1,1.453.371A1.282,1.282,0,0,1-7.533-4.5q0,1.187-1.5,1.531v.021a1.635,1.635,0,0,1,.851.462,1.184,1.184,0,0,1,.26.795A1.6,1.6,0,0,1-8.2-.768a1.85,1.85,0,0,1-.819.642A3.209,3.209,0,0,1-10.3.107,2.252,2.252,0,0,1-12.015-.51,2.529,2.529,0,0,1-12.6-2.32a4.551,4.551,0,0,1,.384-1.907,2.958,2.958,0,0,1,1.093-1.3A2.94,2.94,0,0,1-9.5-5.983Zm-2.181,3.432V-2.3q0,1.649,1.456,1.649A1.753,1.753,0,0,0-9.171-.932.9.9,0,0,0-8.784-1.7a.694.694,0,0,0-.349-.642,2.24,2.24,0,0,0-1.1-.207Zm2.2-2.664a1.938,1.938,0,0,0-1.356.491A2.623,2.623,0,0,0-11.577-3.3h1.208a2.908,2.908,0,0,0,1.439-.287A.9.9,0,0,0-8.435-4.4.721.721,0,0,0-8.709-5,1.217,1.217,0,0,0-9.477-5.215Zm11.671-.14a2.63,2.63,0,0,1-.776,2.033,3.131,3.131,0,0,1-2.2.717h-.6V0H-3.5V-7.853H-.787a3.322,3.322,0,0,1,2.234.65A2.318,2.318,0,0,1,2.194-5.355ZM-1.383-4.334H-1A1.056,1.056,0,0,0-.236-4.6a.975.975,0,0,0,.282-.741q0-.795-.881-.795h-.548ZM3.446,0V-7.853H5.567v6.139H8.591V0Zm11.22,0-.387-1.472H11.728L11.33,0H9l2.562-7.885h2.831L16.986,0Zm-.827-3.212L13.5-4.5q-.118-.43-.287-1.112T12.99-6.59q-.048.274-.191.9t-.631,2.476ZM20.531,0H18.409V-6.118H16.492V-7.853h5.951v1.735H20.531Zm8.631,0H23.045V-1.311l3.4-4.829H23.125V-7.853h5.951v1.305l-3.4,4.834h3.486Zm7.831,0H34.6L33.046-3l-.628.376V0H30.285V-7.853h2.132v3.411a9.308,9.308,0,0,1,.65-1l1.649-2.406h2.32L34.56-4.334ZM42.66,0l-.387-1.472H39.722L39.324,0H36.993l2.562-7.885h2.831L44.98,0Zm-.827-3.212L41.494-4.5q-.118-.43-.287-1.112t-.223-.978q-.048.274-.191.9t-.631,2.476Zm6.118.354V0H45.829V-7.853H48.4q3.2,0,3.2,2.32a2.319,2.319,0,0,1-1.332,2.111L52.559,0H50.153L48.488-2.857Zm0-1.6h.4q1.112,0,1.112-.983,0-.811-1.09-.811H47.95ZM56.738,0H54.616V-6.118H52.7V-7.853H58.65v1.735H56.738Z" transform="translate(85.815 20.281)" fill="#fff" opacity="0.5"/>
  </g>
</symbol><symbol id="icon-faq" viewBox="0 0 18.75 18.75">
  <path id="icon-arrow-dropdown" d="M10.236,14.671a.873.873,0,0,0,0,1.23l4.313,4.3a.869.869,0,0,0,1.2.027L20,15.991a.868.868,0,1,0-1.226-1.23l-3.651,3.6-3.655-3.691A.869.869,0,0,0,10.236,14.671Z" transform="translate(-5.747 -7.337)" fill="#026fc2"/>
  <path id="&#x41A;&#x43E;&#x43D;&#x442;&#x443;&#x440;_17" data-name="&#x41A;&#x43E;&#x43D;&#x442;&#x443;&#x440; 17" d="M3.375,12.75A9.375,9.375,0,1,0,12.75,3.375,9.374,9.374,0,0,0,3.375,12.75ZM18.357,7.143A7.929,7.929,0,1,1,7.143,18.357,7.929,7.929,0,1,1,18.357,7.143Z" transform="translate(-3.375 -3.375)" fill="#026fc2"/>
</symbol><symbol id="icon-next" viewBox="0 0 13.503 23.619">
  <path id="Icon_ionic-ios-arrow-back" data-name="Icon ionic-ios-arrow-back" d="M15.321,18l8.937-8.93a1.688,1.688,0,0,0-2.391-2.384L11.742,16.8a1.685,1.685,0,0,0-.049,2.327L21.86,29.32a1.688,1.688,0,0,0,2.391-2.384Z" transform="translate(24.754 29.813) rotate(180)"/>
</symbol><symbol id="icon-prev" viewBox="0 0 13.503 23.619">
  <path id="Icon_ionic-ios-arrow-back" data-name="Icon ionic-ios-arrow-back" d="M15.321,18l8.937-8.93a1.688,1.688,0,0,0-2.391-2.384L11.742,16.8a1.685,1.685,0,0,0-.049,2.327L21.86,29.32a1.688,1.688,0,0,0,2.391-2.384Z" transform="translate(-11.251 -6.194)"/>
</symbol><symbol id="icon-step-1" viewBox="0 0 17.712 37.8">
  <path id="Powerful_User_Experi" data-name="Powerful User Experi" d="M-10.611-37.8v8.262h7.02V0H7.1V-37.8Z" transform="translate(10.611 37.8)" fill="#026fc2"/>
</symbol><symbol id="icon-step-2" viewBox="0 0 31.374 38.556">
  <path id="Powerful_User_Experi" data-name="Powerful User Experi" d="M.3-8.478l7.128-6.588c5.4-4.968,6.426-8.316,6.426-11.988,0-7.02-5.994-11.5-14.688-11.5-7.452,0-12.8,3.132-15.66,7.884l7.938,4.428a7.726,7.726,0,0,1,6.75-3.672c3.24,0,4.86,1.458,4.86,3.888,0,1.566-.432,3.294-3.456,6.1L-14.553-6.7V0h29.43V-8.478Z" transform="translate(16.497 38.556)" fill="#026fc2"/>
</symbol><symbol id="icon-step-3" viewBox="0 0 31.158 38.556">
  <path id="Powerful_User_Experi" data-name="Powerful User Experi" d="M4.941-22.68l7.83-8.424v-6.7H-14.553v8.262H.351l-6.75,7.29v6.75h4.482c4.1,0,5.778,1.4,5.778,3.672,0,2.538-2.376,3.942-5.994,3.942a19.189,19.189,0,0,1-10.476-3.132L-16.5-2.97C-12.609-.54-7.047.756-1.809.756c11.394,0,16.47-6.156,16.47-12.582C14.661-17.226,11.313-21.33,4.941-22.68Z" transform="translate(16.497 37.8)" fill="#026fc2"/>
</symbol><symbol id="icon-telegram" viewBox="0 0 34.875 34.875">
  <path id="Icon_awesome-telegram" data-name="Icon awesome-telegram" d="M17.438.563A17.438,17.438,0,1,0,34.875,18,17.434,17.434,0,0,0,17.438.563ZM26,12.509,23.14,25.995c-.211.956-.78,1.188-1.575.738L17.205,23.52l-2.1,2.025a1.1,1.1,0,0,1-.879.429l.309-4.437,8.079-7.3c.352-.309-.077-.485-.541-.176l-9.984,6.286-4.3-1.343c-.935-.3-.956-.935.2-1.385l16.812-6.483c.78-.281,1.462.19,1.209,1.371Z" transform="translate(0 -0.563)" fill="#fff" opacity="1"/>
</symbol><symbol id="logo" viewBox="0 0 354 118"><path d="m0 77.6 6.308-14.86 20.687-.2 6.615 14.731Zm43.914-.43L37.3 62.436l29.069-.285-6.309 14.861Z" fill="#fb8d29"/><path d="m68.173 21.71-15.73 37.67L26.363.598H9.805L43.749 77.18h16.556l23.6-55.47Zm22.354 55.47h16.144V21.71H90.526Zm61.679-56.3c-7.524 0-13.885 2.71-18.214 7.451v-6.623h-15.317v55.47h16.144V50.685c0-10.2 5.516-15.316 13.247-15.316 7.112 0 11.177 3.451 11.177 12.419v29.391h16.144V45.304c0-16.906-10.091-24.422-23.182-24.422Zm68.717 42.637a9.732 9.732 0 0 1-6.209 1.656c-4.329 0-7.037-2.71-7.037-7.451V35.368h13.247l7.451-12.419h-20.7V8.875h-15.73v14.074h-14.488l5.381 12.419h9.107v22.768c0 13.194 7.607 19.87 20.7 19.87 4.948 0 10.362-1.355 13.661-3.726Zm65.4-13.661c0-17.832-12.691-28.977-28.977-28.977-16.9 0-29.391 11.968-29.391 28.563a27.367 27.367 0 0 0 8.616 20.536c5.393 5.009 13.258 8.027 22.844 8.027 10 0 18.028-3.646 23.182-9.521l-8.692-8.686a19.5 19.5 0 0 1-14.074 5.8c-8.452 0-15.84-4.685-17.386-11.591h43.465c.106-1.349.417-2.909.417-4.148Zm-28.559-16.558c7.215 0 14.183 4.168 15.316 11.177h-30.632c1.134-7.11 7.998-11.177 15.316-11.177Zm65.819 44.707c17.622.003 30.222-11.862 30.222-28.56s-12.593-28.563-30.219-28.563-30.633 11.865-30.633 28.563 13.004 28.563 30.63 28.563Zm0-13.247c-8.04 0-15.494-5.73-15.494-15.316s7.454-15.316 15.494-15.316 15.73 5.73 15.73 15.316-7.69 15.319-15.73 15.319Z" fill="#fff"/><circle cx="8.5" cy="8.5" r="8.5" transform="translate(89.931)" fill="#fff"/><text transform="translate(50.931 114)" fill="#fff" font-size="17" font-family="Montserrat-Light, Montserrat" font-weight="300"><tspan x="0" y="0">VIDEO COMMUNICATION CORE</tspan></text></symbol></svg>