<svg id="Icon_ionic-ios-arrow-dropdown" data-name="Icon ionic-ios-arrow-dropdown" xmlns="http://www.w3.org/2000/svg" width="18.75" height="18.75" viewBox="0 0 18.75 18.75">
  <path id="icon-arrow-dropdown" d="M10.236,14.671a.873.873,0,0,0,0,1.23l4.313,4.3a.869.869,0,0,0,1.2.027L20,15.991a.868.868,0,1,0-1.226-1.23l-3.651,3.6-3.655-3.691A.869.869,0,0,0,10.236,14.671Z" transform="translate(-5.747 -7.337)" fill="#026fc2"/>
  <path id="Контур_17" data-name="Контур 17" d="M3.375,12.75A9.375,9.375,0,1,0,12.75,3.375,9.374,9.374,0,0,0,3.375,12.75ZM18.357,7.143A7.929,7.929,0,1,1,7.143,18.357,7.929,7.929,0,1,1,18.357,7.143Z" transform="translate(-3.375 -3.375)" fill="#026fc2"/>
</svg>
